<svg width="24" height="24" viewBox="0 0 24 24" fill="none" xmlns="http://www.w3.org/2000/svg">
<path d="M1.5 1.5H3.83333L4.3 3.83333L1.5 1.5ZM6.16667 13.1667H17.8333L22.5 3.83333H4.3L6.16667 13.1667ZM6.16667 13.1667L4.3 3.83333L6.16667 13.1667ZM6.16667 13.1667L3.4915 15.8418C2.7565 16.5768 3.27683 17.8333 4.31633 17.8333H17.8333L6.16667 13.1667ZM17.8333 17.8333C17.2145 17.8333 16.621 18.0792 16.1834 18.5168C15.7458 18.9543 15.5 19.5478 15.5 20.1667C15.5 20.7855 15.7458 21.379 16.1834 21.8166C16.621 22.2542 17.2145 22.5 17.8333 22.5C18.4522 22.5 19.0457 22.2542 19.4832 21.8166C19.9208 21.379 20.1667 20.7855 20.1667 20.1667C20.1667 19.5478 19.9208 18.9543 19.4832 18.5168C19.0457 18.0792 18.4522 17.8333 17.8333 17.8333ZM8.5 20.1667C8.5 20.7855 8.25417 21.379 7.81658 21.8166C7.379 22.2542 6.7855 22.5 6.16667 22.5C5.54783 22.5 4.95434 22.2542 4.51675 21.8166C4.07917 21.379 3.83333 20.7855 3.83333 20.1667C3.83333 19.5478 4.07917 18.9543 4.51675 18.5168C4.95434 18.0792 5.54783 17.8333 6.16667 17.8333C6.7855 17.8333 7.379 18.0792 7.81658 18.5168C8.25417 18.9543 8.5 19.5478 8.5 20.1667V20.1667Z" stroke="white" stroke-width="2" stroke-linecap="round" stroke-linejoin="round"/>
</svg>
