<svg width="18" height="15" viewBox="0 0 18 15" fill="none" xmlns="http://www.w3.org/2000/svg">
    <path
        d="M2.5983 2.265C2.25008 2.61322 1.97385 3.02662 1.78539 3.48159C1.59694 3.93657 1.49994 4.42421 1.49994 4.91667C1.49994 5.40913 1.59694 5.89677 1.78539 6.35174C1.97385 6.80671 2.25008 7.22011 2.5983 7.56833L8.99997 13.97L15.4016 7.56833C16.1049 6.86507 16.5 5.91123 16.5 4.91667C16.5 3.9221 16.1049 2.96827 15.4016 2.265C14.6984 1.56173 13.7445 1.16664 12.75 1.16664C11.7554 1.16664 10.8016 1.56173 10.0983 2.265L8.99997 3.36333L7.90164 2.265C7.55342 1.91677 7.14002 1.64055 6.68505 1.45209C6.23007 1.26363 5.74243 1.16663 5.24997 1.16663C4.75751 1.16663 4.26987 1.26363 3.8149 1.45209C3.35992 1.64055 2.94653 1.91677 2.5983 2.265V2.265Z"
        stroke-width="2" stroke-linecap="round" stroke-linejoin="round" />
</svg>