<svg width="18" height="16" viewBox="0 0 18 16" fill="none" xmlns="http://www.w3.org/2000/svg">
<path fill-rule="evenodd" clip-rule="evenodd" d="M0.599976 1.99999C0.599976 1.68173 0.726404 1.3765 0.951447 1.15146C1.17649 0.926416 1.48172 0.799988 1.79998 0.799988H16.2C16.5182 0.799988 16.8235 0.926416 17.0485 1.15146C17.2735 1.3765 17.4 1.68173 17.4 1.99999C17.4 2.31825 17.2735 2.62347 17.0485 2.84852C16.8235 3.07356 16.5182 3.19999 16.2 3.19999H1.79998C1.48172 3.19999 1.17649 3.07356 0.951447 2.84852C0.726404 2.62347 0.599976 2.31825 0.599976 1.99999Z" fill="white"/>
<path fill-rule="evenodd" clip-rule="evenodd" d="M0.599976 7.99999C0.599976 7.68173 0.726404 7.3765 0.951447 7.15146C1.17649 6.92642 1.48172 6.79999 1.79998 6.79999H16.2C16.5182 6.79999 16.8235 6.92642 17.0485 7.15146C17.2735 7.3765 17.4 7.68173 17.4 7.99999C17.4 8.31825 17.2735 8.62347 17.0485 8.84852C16.8235 9.07356 16.5182 9.19999 16.2 9.19999H1.79998C1.48172 9.19999 1.17649 9.07356 0.951447 8.84852C0.726404 8.62347 0.599976 8.31825 0.599976 7.99999Z" fill="white"/>
<path fill-rule="evenodd" clip-rule="evenodd" d="M0.599976 14C0.599976 13.6817 0.726404 13.3765 0.951447 13.1515C1.17649 12.9264 1.48172 12.8 1.79998 12.8H8.99998C9.31824 12.8 9.62346 12.9264 9.8485 13.1515C10.0735 13.3765 10.2 13.6817 10.2 14C10.2 14.3182 10.0735 14.6235 9.8485 14.8485C9.62346 15.0736 9.31824 15.2 8.99998 15.2H1.79998C1.48172 15.2 1.17649 15.0736 0.951447 14.8485C0.726404 14.6235 0.599976 14.3182 0.599976 14Z" fill="white"/>
</svg>
