<svg width="9" height="9" viewBox="0 0 9 9" fill="none" xmlns="http://www.w3.org/2000/svg">
    <path
        d="M3.92397 0.436555C4.10556 -0.145518 4.89428 -0.145518 5.07527 0.436555L5.72295 2.5171C5.76252 2.64381 5.83945 2.75422 5.94272 2.83254C6.046 2.91086 6.17035 2.95309 6.298 2.95318H8.39359C8.98013 2.95318 9.22347 3.73687 8.74951 4.09711L7.05464 5.3826C6.95115 5.46098 6.87409 5.57157 6.83451 5.6985C6.79492 5.82544 6.79485 5.9622 6.8343 6.08917L7.48199 8.16972C7.66358 8.75179 7.02498 9.23654 6.54981 8.8763L4.85494 7.59081C4.75155 7.51244 4.62707 7.47024 4.49932 7.47024C4.37156 7.47024 4.24708 7.51244 4.1437 7.59081L2.44883 8.8763C1.97426 9.23654 1.33626 8.75179 1.51725 8.16972L2.16494 6.08917C2.20439 5.9622 2.20432 5.82544 2.16473 5.6985C2.12515 5.57157 2.04809 5.46098 1.9446 5.3826L0.250337 4.09774C-0.223621 3.7375 0.0203191 2.95382 0.60626 2.95382H2.70124C2.82899 2.95385 2.95348 2.91169 3.05688 2.83336C3.16028 2.75502 3.23729 2.64455 3.27689 2.51773L3.92458 0.437187L3.92397 0.436555Z"
        fill="#FFFFFF" />
</svg>